{"accessors" : [{"bufferView" : 0, "byteOffset" : 0, "componentType" : 5123, "count" : 576, "type" : "SCALAR", "max" : [467], "min" : [0]}, {"bufferView" : 1, "byteOffset" : 0, "componentType" : 5126, "count" : 468, "type" : "VEC3", "max" : [9.9769287109375, 54.58190155029297, 14.33530044555664], "min" : [-9.9769287109375, 44.59659957885742, 4.34859037399292], "name" : "POSITION"}, {"bufferView" : 1, "byteOffset" : 12, "componentType" : 5126, "count" : 468, "type" : "VEC3", "max" : [0.9795661568641663, 0.6319421529769897, 0.619106650352478], "min" : [-0.9795661568641663, -0.015064855106174946, 0.1694866120815277], "name" : "NORMAL"}, {"bufferView" : 1, "byteOffset" : 24, "componentType" : 5126, "count" : 468, "type" : "VEC2", "max" : [0.4924899935722351, 2.968909978866577], "min" : [0.007505999878048897, 2.7550599575042725], "name" : "TEXCOORD_0"}, {"bufferView" : 0, "byteOffset" : 1152, "componentType" : 5123, "count" : 12690, "type" : "SCALAR", "max" : [10797], "min" : [0]}, {"bufferView" : 2, "byteOffset" : 0, "componentType" : 5126, "count" : 10798, "type" : "VEC3", "max" : [26.600299835205078, 59.80820083618164, 18.891002655029297], "min" : [-26.600299835205078, -9.999999974752427E-07, -53.20709991455078], "name" : "POSITION"}, {"bufferView" : 2, "byteOffset" : 12, "componentType" : 5126, "count" : 10798, "type" : "VEC3", "max" : [0.9996961951255798, 0.9996969103813171, 0.9999774098396301], "min" : [-0.9996961951255798, -1.0000044107437134, -0.9999871850013733], "name" : "NORMAL"}, {"bufferView" : 2, "byteOffset" : 24, "componentType" : 5126, "count" : 10798, "type" : "VEC2", "max" : [0.9948220252990723, 1.9921879768371582], "min" : [0.005177999846637249, 1.0053939819335938], "name" : "TEXCOORD_0"}, {"bufferView" : 0, "byteOffset" : 26532, "componentType" : 5123, "count" : 528, "type" : "SCALAR", "max" : [431], "min" : [0]}, {"bufferView" : 3, "byteOffset" : 0, "componentType" : 5126, "count" : 432, "type" : "VEC3", "max" : [7.715760231018066, 35.835201263427734, -44.28850173950195], "min" : [-7.715760231018066, 6.6779398918151855, -59.720001220703125], "name" : "POSITION"}, {"bufferView" : 3, "byteOffset" : 12, "componentType" : 5126, "count" : 432, "type" : "VEC3", "max" : [0.9984402656555176, 1.0000044107437134, 0.9984402060508728], "min" : [-0.999734103679657, -1.0000044107437134, -0.9984402060508728], "name" : "NORMAL"}, {"bufferView" : 3, "byteOffset" : 24, "componentType" : 5126, "count" : 432, "type" : "VEC2", "max" : [0.9858070015907288, 2.840129852294922], "min" : [0.01423100009560585, 1.0042370557785034], "name" : "TEXCOORD_0"}, {"bufferView" : 0, "byteOffset" : 27588, "componentType" : 5123, "count" : 576, "type" : "SCALAR", "max" : [456], "min" : [0]}, {"bufferView" : 4, "byteOffset" : 0, "componentType" : 5126, "count" : 457, "type" : "VEC3", "max" : [8.567429542541504, 37.02329635620117, -43.330101013183594], "min" : [-8.567420959472656, 6.0622711181640625, -60.64249801635742], "name" : "POSITION"}, {"bufferView" : 4, "byteOffset" : 12, "componentType" : 5126, "count" : 457, "type" : "VEC3", "max" : [0.9991407990455627, 1.0000044107437134, 0.9991285800933838], "min" : [-0.9991407990455627, -1.0000044107437134, -0.9991285800933838], "name" : "NORMAL"}, {"bufferView" : 4, "byteOffset" : 24, "componentType" : 5126, "count" : 457, "type" : "VEC2", "max" : [0.9979000091552734, 1.9805070161819458], "min" : [0.0019389999797567725, 1.0332080125808716], "name" : "TEXCOORD_0"}], "asset" : {"generator" : "Aspose.3D 24.1.0", "version" : "2.0"}, "buffers" : [{"uri" : "data:application/octet-stream;base64,", "byteLength" : 488600}], "bufferViews" : [{"buffer" : 0, "byteOffset" : 0, "byteLength" : 28740, "target" : 34963}, {"buffer" : 0, "byteOffset" : 28744, "byteLength" : 18432, "byteStride" : 32, "target" : 34962}, {"buffer" : 0, "byteOffset" : 47180, "byteLength" : 406080, "byteStride" : 32, "target" : 34962}, {"buffer" : 0, "byteOffset" : 453264, "byteLength" : 16896, "byteStride" : 32, "target" : 34962}, {"buffer" : 0, "byteOffset" : 470164, "byteLength" : 18432, "byteStride" : 32, "target" : 34962}], "images" : [{"uri" : "data:image/png;base64,"}, {"uri" : "data:image/png;base64,"}], "materials" : [{"name" : "Material_34", "pbrMetallicRoughness" : {"baseColorFactor" : [1, 1, 1, 1], "baseColorTexture" : {"index" : 0, "texCoord" : 0}, "metallicFactor" : 0, "roughnessFactor" : 0.8929713596497552}, "emissiveFactor" : [0, 0, 0], "alphaMode" : "OPAQUE", "doubleSided" : true}, {"name" : "Material_35", "pbrMetallicRoughness" : {"baseColorFactor" : [1, 1, 1, 1], "baseColorTexture" : {"index" : 1, "texCoord" : 0}, "metallicFactor" : 0, "roughnessFactor" : 0.8929713596497552}, "emissiveFactor" : [0, 0, 0], "alphaMode" : "OPAQUE", "doubleSided" : true}, {"name" : "Material_36", "pbrMetallicRoughness" : {"baseColorFactor" : [0.588, 0.588, 0.588, 1], "metallicFactor" : 0, "roughnessFactor" : 0.8929713596497552}, "emissiveFactor" : [0, 0, 0], "alphaMode" : "OPAQUE", "doubleSided" : true}, {"name" : "Material_37", "pbrMetallicRoughness" : {"baseColorFactor" : [0.8669066303547709, 0.4639187918531467, 0.004090713035003553, 1], "metallicFactor" : 0, "roughnessFactor" : 0.8929713596497552}, "emissiveFactor" : [0, 0, 0], "alphaMode" : "OPAQUE", "doubleSided" : true}], "meshes" : [{"primitives" : [{"attributes" : {"POSITION" : 1, "NORMAL" : 2, "TEXCOORD_0" : 3}, "indices" : 0, "material" : 0, "mode" : 4}]}, {"primitives" : [{"attributes" : {"POSITION" : 5, "NORMAL" : 6, "TEXCOORD_0" : 7}, "indices" : 4, "material" : 1, "mode" : 4}]}, {"primitives" : [{"attributes" : {"POSITION" : 9, "NORMAL" : 10, "TEXCOORD_0" : 11}, "indices" : 8, "material" : 2, "mode" : 4}]}, {"primitives" : [{"attributes" : {"POSITION" : 13, "NORMAL" : 14, "TEXCOORD_0" : 15}, "indices" : 12, "material" : 3, "mode" : 4}]}], "nodes" : [{"mesh" : 0, "name" : "Object_6"}, {"mesh" : 1, "name" : "Object_7"}, {"mesh" : 2, "name" : "Object_8"}, {"mesh" : 3, "name" : "Object_9"}, {"children" : [0, 1, 2, 3], "name" : "Object_3"}, {"children" : [4], "name" : "RootNode"}, {"children" : [5], "matrix" : [0.02539999969303608, 0, 0, 0, 0, 0, 0.02539999969303608, 0, 0, -0.02539999969303608, 0, 0, 0, 0, 0, 1], "name" : "da846f78bb8048a297d744c8889ba920.fbx"}, {"children" : [6], "matrix" : [1, 0, 0, 0, 0, 2.220446049250313E-16, -1, 0, 0, 1, 2.220446049250313E-16, 0, 0, 0, 0, 1], "name" : "Sketchfab_model"}], "samplers" : [{"magFilter" : 9729, "minFilter" : 9987, "wrapS" : 10497, "wrapT" : 10497}, {"magFilter" : 9729, "minFilter" : 9987, "wrapS" : 10497, "wrapT" : 10497}], "scene" : 0, "scenes" : [{"nodes" : [7]}], "textures" : [{"sampler" : 0, "source" : 0, "name" : ""}, {"sampler" : 1, "source" : 1, "name" : ""}]}