{
  "asset": {
    "version": "2.0",
    "generator": "THREE.GLTFExporter"
  },
  "scenes": [
    {
      "name": "Scene",
      "nodes": [
        5
      ]
    }
  ],
  "scene": 0,
  "nodes": [
    {
      "name": "Object_2",
      "extras": {
        "name": "Object_2"
      },
      "mesh": 0
    },
    {
      "name": "Object_3",
      "extras": {
        "name": "Object_3"
      },
      "mesh": 1
    },
    {
      "name": "Object_4",
      "extras": {
        "name": "Object_4"
      },
      "mesh": 2
    },
    {
      "name": "Ventiobjcleanermaterialmergergles",
      "extras": {
        "name": "Venti.obj.cleaner.materialmerger.gles"
      },
      "children": [
        0,
        1,
        2
      ]
    },
    {
      "matrix": [
        1,
        0,
        0,
        0,
        0,
        2.220446049250313e-16,
        -1,
        0,
        0,
        1,
        2.220446049250313e-16,
        0,
        0,
        0,
        0,
        1
      ],
      "name": "Sketchfab_model",
      "extras": {
        "name": "Sketchfab_model"
      },
      "children": [
        3
      ]
    },
    {
      "name": "venti_genshin_impact_-_venti.glb",
      "children": [
        4
      ]
    }
  ],
  "bufferViews": [
    {
      "buffer": 0,
      "byteOffset": 0,
      "byteLength": 114588,
      "target": 34962,
      "byteStride": 12
    },
    {
      "buffer": 0,
      "byteOffset": 114588,
      "byteLength": 114588,
      "target": 34962,
      "byteStride": 12
    },
    {
      "buffer": 0,
      "byteOffset": 229176,
      "byteLength": 76392,
      "target": 34962,
      "byteStride": 8
    },
    {
      "buffer": 0,
      "byteOffset": 305568,
      "byteLength": 181224,
      "target": 34963
    },
    {
      "buffer": 0,
      "byteOffset": 486792,
      "byteLength": 23328,
      "target": 34962,
      "byteStride": 12
    },
    {
      "buffer": 0,
      "byteOffset": 510120,
      "byteLength": 23328,
      "target": 34962,
      "byteStride": 12
    },
    {
      "buffer": 0,
      "byteOffset": 533448,
      "byteLength": 15552,
      "target": 34962,
      "byteStride": 8
    },
    {
      "buffer": 0,
      "byteOffset": 549000,
      "byteLength": 32232,
      "target": 34963
    },
    {
      "buffer": 0,
      "byteOffset": 581232,
      "byteLength": 21036,
      "target": 34962,
      "byteStride": 12
    },
    {
      "buffer": 0,
      "byteOffset": 602268,
      "byteLength": 21036,
      "target": 34962,
      "byteStride": 12
    },
    {
      "buffer": 0,
      "byteOffset": 623304,
      "byteLength": 14024,
      "target": 34962,
      "byteStride": 8
    },
    {
      "buffer": 0,
      "byteOffset": 637328,
      "byteLength": 29676,
      "target": 34963
    }
  ],
  "buffers": [
    {
      "byteLength": 667004,
      "uri": "data:application/octet-stream;base64,"
    }
  ],
  "accessors": [
    {
      "bufferView": 0,
      "componentType": 5126,
      "count": 9549,
      "max": [
        0.9999935626983643,
        1,
        0.9994046688079834
      ],
      "min": [
        -0.9999935626983643,
        -1,
        -0.9999774694442749
      ],
      "type": "VEC3"
    },
    {
      "bufferView": 1,
      "componentType": 5126,
      "count": 9549,
      "max": [
        6.14169979095459,
        4.005199909210205,
        19.202299118041992
      ],
      "min": [
        -6.14169979095459,
        -1.8509999513626099,
        -0.05770000070333481
      ],
      "type": "VEC3"
    },
    {
      "bufferView": 2,
      "componentType": 5126,
      "count": 9549,
      "max": [
        0.9955999851226807,
        -0.0035000001080334187
      ],
      "min": [
        0.004900000058114529,
        -0.9966999888420105
      ],
      "type": "VEC2"
    },
    {
      "bufferView": 3,
      "componentType": 5125,
      "count": 45306,
      "max": [
        9548
      ],
      "min": [
        0
      ],
      "type": "SCALAR"
    },
    {
      "bufferView": 4,
      "componentType": 5126,
      "count": 1944,
      "max": [
        0.9987291693687439,
        0.9999395608901978,
        0.999951958656311
      ],
      "min": [
        -0.9987291693687439,
        -0.9999966621398926,
        -0.9997815489768982
      ],
      "type": "VEC3"
    },
    {
      "bufferView": 5,
      "componentType": 5126,
      "count": 1944,
      "max": [
        0.9718999862670898,
        -0.2531000077724457,
        17.33169937133789
      ],
      "min": [
        -0.9718999862670898,
        -1.6426000595092773,
        15.092000007629395
      ],
      "type": "VEC3"
    },
    {
      "bufferView": 6,
      "componentType": 5126,
      "count": 1944,
      "max": [
        0.965399980545044,
        -0.002899999963119626
      ],
      "min": [
        0.03460000082850456,
        -0.9987000226974487
      ],
      "type": "VEC2"
    },
    {
      "bufferView": 7,
      "componentType": 5125,
      "count": 8058,
      "max": [
        1943
      ],
      "min": [
        0
      ],
      "type": "SCALAR"
    },
    {
      "bufferView": 8,
      "componentType": 5126,
      "count": 1753,
      "max": [
        0.9982154965400696,
        0.9967387318611145,
        0.9999536275863647
      ],
      "min": [
        -0.998183012008667,
        -0.9985594153404236,
        -0.9915393590927124
      ],
      "type": "VEC3"
    },
    {
      "bufferView": 9,
      "componentType": 5126,
      "count": 1753,
      "max": [
        1.6159000396728516,
        1.09089994430542,
        18.297700881958008
      ],
      "min": [
        -1.6397000551223755,
        -1.8876999616622925,
        13.880399703979492
      ],
      "type": "VEC3"
    },
    {
      "bufferView": 10,
      "componentType": 5126,
      "count": 1753,
      "max": [
        0.9965999722480774,
        -0.0031999999191612005
      ],
      "min": [
        0.001500000013038516,
        -0.9894999861717224
      ],
      "type": "VEC2"
    },
    {
      "bufferView": 11,
      "componentType": 5125,
      "count": 7419,
      "max": [
        1752
      ],
      "min": [
        0
      ],
      "type": "SCALAR"
    }
  ],
  "materials": [
    {
      "pbrMetallicRoughness": {
        "metallicFactor": 0,
        "roughnessFactor": 1,
        "baseColorTexture": {
          "index": 0,
          "texCoord": 0
        }
      },
      "emissiveTexture": {
        "index": 0,
        "texCoord": 0
      },
      "doubleSided": true,
      "name": "Material__38"
    },
    {
      "pbrMetallicRoughness": {
        "metallicFactor": 0,
        "roughnessFactor": 1,
        "baseColorTexture": {
          "index": 1,
          "texCoord": 0
        }
      },
      "emissiveTexture": {
        "index": 1,
        "texCoord": 0
      },
      "doubleSided": true,
      "name": "Material__39"
    },
    {
      "pbrMetallicRoughness": {
        "metallicFactor": 0,
        "roughnessFactor": 1,
        "baseColorTexture": {
          "index": 2,
          "texCoord": 0
        }
      },
      "emissiveTexture": {
        "index": 2,
        "texCoord": 0
      },
      "doubleSided": true,
      "name": "Material__40"
    }
  ],
  "textures": [
    {
      "sampler": 0,
      "source": 0
    },
    {
      "sampler": 1,
      "source": 1
    },
    {
      "sampler": 2,
      "source": 2
    }
  ],
  "samplers": [
    {
      "magFilter": 9729,
      "minFilter": 9987,
      "wrapS": 10497,
      "wrapT": 10497
    },
    {
      "magFilter": 9729,
      "minFilter": 9987,
      "wrapS": 10497,
      "wrapT": 10497
    },
    {
      "magFilter": 9729,
      "minFilter": 9987,
      "wrapS": 10497,
      "wrapT": 10497
    }
  ],
  "images": [
    {
      "mimeType": "image/png",
      "uri": "data:image/png;base64,"
    },
    {
      "mimeType": "image/png",
      "uri": "data:image/png;base64,"
    },
    {
      "mimeType": "image/png",
      "uri": "data:image/png;base64,"
    }
  ],
  "meshes": [
    {
      "primitives": [
        {
          "mode": 4,
          "attributes": {
            "NORMAL": 0,
            "POSITION": 1,
            "TEXCOORD_0": 2
          },
          "indices": 3,
          "material": 0
        }
      ]
    },
    {
      "primitives": [
        {
          "mode": 4,
          "attributes": {
            "NORMAL": 4,
            "POSITION": 5,
            "TEXCOORD_0": 6
          },
          "indices": 7,
          "material": 1
        }
      ]
    },
    {
      "primitives": [
        {
          "mode": 4,
          "attributes": {
            "NORMAL": 8,
            "POSITION": 9,
            "TEXCOORD_0": 10
          },
          "indices": 11,
          "material": 2
        }
      ]
    }
  ]
}