{"accessors" : [{"bufferView" : 0, "byteOffset" : 0, "componentType" : 5123, "count" : 1554, "type" : "SCALAR", "max" : [1553], "min" : [0]}, {"bufferView" : 1, "byteOffset" : 0, "componentType" : 5126, "count" : 1554, "type" : "VEC3", "max" : [-26, 22.996999740600586, 26.516000747680664], "min" : [-51.42599868774414, -11, -17], "name" : "POSITION"}, {"bufferView" : 1, "byteOffset" : 12, "componentType" : 5126, "count" : 1554, "type" : "VEC3", "max" : [0, 0.6235294342041016, 0.843137264251709], "min" : [0, 0.6235294342041016, 0.843137264251709], "name" : "COLOR_0"}], "asset" : {"generator" : "Aspose.3D 24.1.0", "version" : "2.0"}, "buffers" : [{"uri" : "data:application/octet-stream;base64,", "byteLength" : 40412}], "bufferViews" : [{"buffer" : 0, "byteOffset" : 0, "byteLength" : 3108, "target" : 34963}, {"buffer" : 0, "byteOffset" : 3112, "byteLength" : 37296, "byteStride" : 24, "target" : 34962}], "materials" : [{"name" : "lambert2SG.001", "pbrMetallicRoughness" : {"baseColorFactor" : [1, 1, 1, 1], "metallicFactor" : 0.5, "roughnessFactor" : 0.5}, "emissiveFactor" : [0, 0, 0], "alphaMode" : "OPAQUE", "doubleSided" : false}], "meshes" : [{"primitives" : [{"attributes" : {"POSITION" : 1, "COLOR_0" : 2}, "indices" : 0, "material" : 0, "mode" : 4}]}], "nodes" : [{"mesh" : 0, "name" : "Mesh_Mesh_head_geo.001_lambert2SG.001"}, {"children" : [0], "matrix" : [1, 0, 0, 0, 0, 2.220446049250313E-16, -1, 0, 0, 1, 2.220446049250313E-16, 0, 0, 0, 0, 1], "name" : "Node #1"}], "scene" : 0, "scenes" : [{"nodes" : [1]}]}