{"accessors" : [{"bufferView" : 0, "byteOffset" : 0, "componentType" : 5125, "count" : 111114, "type" : "SCALAR", "max" : [111113], "min" : [0]}, {"bufferView" : 1, "byteOffset" : 0, "componentType" : 5126, "count" : 111114, "type" : "VEC3", "max" : [50, 69, 17.465999603271484], "min" : [-40, -63, -2.906680591138462E-15], "name" : "POSITION"}, {"bufferView" : 1, "byteOffset" : 12, "componentType" : 5126, "count" : 111114, "type" : "VEC3", "max" : [1, 0.9803921580314636, 0.9803921580314636], "min" : [0.07058823853731155, 0.18039216101169586, 0.07450980693101883], "name" : "COLOR_0"}], "asset" : {"generator" : "Aspose.3D 24.1.0", "version" : "2.0"}, "buffers" : [{"uri" : "data:application/octet-stream;base64,", "byteLength" : 3111200}], "bufferViews" : [{"buffer" : 0, "byteOffset" : 0, "byteLength" : 444456, "target" : 34963}, {"buffer" : 0, "byteOffset" : 444460, "byteLength" : 2666736, "byteStride" : 24, "target" : 34962}], "materials" : [{"name" : "lambert2SG.001", "pbrMetallicRoughness" : {"baseColorFactor" : [1, 1, 1, 1], "metallicFactor" : 0.5, "roughnessFactor" : 0.5}, "emissiveFactor" : [0, 0, 0], "alphaMode" : "OPAQUE", "doubleSided" : false}], "meshes" : [{"primitives" : [{"attributes" : {"POSITION" : 1, "COLOR_0" : 2}, "indices" : 0, "material" : 0, "mode" : 4}]}], "nodes" : [{"mesh" : 0, "name" : "Mesh_Mesh_head_geo.001_lambert2SG.001"}, {"children" : [0], "matrix" : [1, 0, 0, 0, 0, 2.220446049250313E-16, -1, 0, 0, 1, 2.220446049250313E-16, 0, 0, 0, 0, 1], "name" : "Node #1"}], "scene" : 0, "scenes" : [{"nodes" : [1]}]}